<?xml version="1.0" encoding="utf-8"?>
<!-- Generator: Adobe Illustrator 27.2.0, SVG Export Plug-In . SVG Version: 6.00 Build 0)  -->
<svg version="1.1" id="Layer_1" xmlns="http://www.w3.org/2000/svg" xmlns:xlink="http://www.w3.org/1999/xlink" x="0px" y="0px"
	 viewBox="0 0 1500 1500" style="enable-background:new 0 0 1500 1500;" xml:space="preserve">
<style type="text/css">
	.st0{fill:#E9B03E;}
	.st1{fill:#193636;}
</style>
<g>
	<path class="st0" d="M1200.6,1140.8c23.8-24.2,44.8-50,62.8-77.4c18.1-27.4,33.3-56.5,45.5-87.1l-129-65.6
		c-12.4,31.6-27.8,60.6-46.1,86.8c-7.9,11.3-16.3,22.1-25.3,32.3c-4.8,5.6-9.8,11-15,16.2c-24,24.5-50.8,45.8-80.4,64.2
		c-2.9,1.8-5.8,3.5-8.7,5.3c-8.7,5.2-17.7,10.1-26.9,14.7c-7,3.5-14.1,6.9-21.3,10.1c-1.9,0.9-3.9,1.7-5.8,2.6
		c-29.2,12.5-58.5,22.1-87.7,28.6c-28.1,6.3-56.3,9.9-84.4,10.7c-56.5,1.6-109.9-7.1-160.1-26c-0.8-0.3-1.6-0.6-2.4-0.9
		c-30-11.5-58.1-26.5-84.5-44.9c-18.5-12.9-36.1-27.5-52.7-43.8c-40.6-39.6-72.9-87.5-97.1-143.9s-36.6-112.9-37.3-169.5
		c-0.6-50.8,7.5-99.1,24.3-144.9c1.9-5.3,3.9-10.5,6.1-15.7c10.5-25.1,23.4-49.1,38.8-71.7c15.5-22.8,33.4-44.3,53.8-64.6
		c8.7-8.7,17.8-16.9,27.3-24.9c22.8-19.1,47.8-36.1,75-50.9c9.1-5,18.4-9.7,28-14.2c5.5-2.6,11.1-5.1,16.8-7.6
		c1.4-0.6,2.7-1.1,4.1-1.7c5.6-2.3,11.1-4.6,16.7-6.7c40.1-15.1,80.7-24.2,121.8-27.4c8.7-0.7,17.4-1.1,26.2-1.3
		c43.2-0.7,86.2,5.8,128.9,19.4l64.7-130.7C917,187.2,854.1,176.5,788,178c-32.6,0.8-65.2,4.3-97.9,10.6L596.1,0l-39.4,19.4
		l-69.3,34.2l84.4,169.7c-5.9,2.4-11.9,4.8-17.8,7.3c-0.5,0.2-0.9,0.4-1.4,0.6c-6.2,2.7-12.3,5.4-18.4,8.2L450.7,71.6l-30.9,15.2
		L342,125.2l86.8,174.5c-26.9,19-51.9,39.7-74.7,62.3c-28.6,28.2-53.6,58.4-75,90.5c-18.3,27.4-33.9,56.2-46.9,86.4
		c-0.9,2-1.7,4-2.5,5.9c-28.4,68-42.7,139.4-42.8,214.2s16.1,150.2,48.6,226s75.9,139.5,130.2,191c30,28.4,62.1,53,96.3,73.8
		c27.8,16.9,57,31.3,87.6,43.2c0.2,0.1,0.4,0.1,0.5,0.2c68.2,26.4,140.5,38.4,216.9,36c53.2-1.6,106.7-10.8,160.5-27.3l98.6,198.1
		l2.3-1.1h0.1l88.1-43.4h0.1l18.2-8.9l-94.6-190.1c9.6-4.9,19-9.9,28.2-15.1c2.6-1.5,5.1-2.9,7.7-4.4l95.3,191.6l82-40.4l26.8-13.2
		l-104.6-210.2C1184.2,1156.9,1192.5,1148.9,1200.6,1140.8z"/>
	<g>
		<path class="st1" d="M753.3,762.3l-50.4,101.8h196l61.9,126.1h126.7L973.9,762.3H753.3z"/>
		<path class="st1" d="M589.2,990.2H462.1l114-227.9h126.7L589.2,990.2z"/>
		<path class="st1" d="M724.6,716.7H598.7l175.9-351.9l62.7,126.1L724.6,716.7z"/>
		<circle class="st0" cx="866" cy="654.9" r="73.4"/>
	</g>
</g>
</svg>
